<?xml version="1.0" standalone="no"?>
<!DOCTYPE svg PUBLIC "-//W3C//DTD SVG 20010904//EN"
 "http://www.w3.org/TR/2001/REC-SVG-20010904/DTD/svg10.dtd">
<svg version="1.0" xmlns="http://www.w3.org/2000/svg"
 width="1024.000000pt" height="1024.000000pt" viewBox="0 0 1024.000000 1024.000000"
 preserveAspectRatio="xMidYMid meet">

<g transform="translate(0.000000,1024.000000) scale(0.100000,-0.100000)"
fill="#000000" stroke="none">
<path d="M4720 8283 c-8 -3 -78 -30 -155 -60 -77 -30 -162 -64 -190 -74 -27
-10 -56 -28 -64 -40 l-13 -22 80 5 c44 3 89 11 101 17 11 7 21 10 21 7 0 -3
-26 -58 -57 -123 -74 -152 -127 -273 -122 -277 10 -10 107 18 116 33 6 10 32
69 58 132 26 63 60 138 77 167 33 59 143 202 165 215 27 17 15 32 -17 20z"/>
<path d="M5272 8279 c3 -8 43 -33 89 -56 89 -46 108 -64 118 -116 l7 -32 95 3
95 4 27 -114 c24 -99 33 -161 36 -245 1 -21 5 -23 67 -23 55 0 65 3 60 15 -3
8 -12 54 -21 103 -20 111 -68 302 -80 322 -23 35 -78 69 -127 79 -29 5 -116
22 -193 36 -77 14 -148 28 -159 32 -12 3 -17 1 -14 -8z"/>
<path d="M5054 8200 c-42 -17 -82 -76 -98 -149 -39 -173 -1 -292 99 -307 68
-10 130 23 156 82 40 89 34 248 -12 323 -29 48 -95 71 -145 51z m73 -77 c23
-35 24 -207 1 -268 -18 -49 -59 -61 -79 -23 -26 49 -9 240 27 296 19 29 30 28
51 -5z"/>
<path d="M4015 7951 c-107 -49 -235 -252 -235 -373 0 -36 40 -78 75 -78 41 0
111 39 154 85 67 73 131 220 131 301 0 34 -5 47 -26 63 -32 26 -48 26 -99 2z
m35 -84 c0 -69 -70 -230 -116 -266 -54 -43 -72 -18 -48 67 22 76 54 138 99
190 45 52 65 54 65 9z"/>
<path d="M6092 7920 c-12 -5 -25 -17 -29 -26 -9 -23 44 -65 72 -58 35 9 92
-90 124 -218 10 -37 19 -69 22 -71 2 -2 21 -7 42 -10 34 -5 37 -4 37 18 0 78
-79 227 -173 328 -45 48 -55 52 -95 37z"/>
<path d="M5051 7560 c-54 -13 -83 -42 -129 -128 -35 -66 -44 -95 -52 -166 -11
-96 -1 -195 25 -247 21 -42 81 -106 117 -125 64 -34 161 -11 228 54 65 63 75
102 75 277 0 129 -2 144 -26 195 -52 111 -142 164 -238 140z m69 -100 c48 -26
85 -237 61 -353 -21 -100 -82 -145 -128 -94 -32 35 -45 91 -45 197 0 109 21
201 55 238 23 25 30 26 57 12z"/>
<path d="M4309 7537 c-8 -7 -49 -39 -92 -71 l-79 -58 33 -34 c36 -37 53 -42
75 -19 28 28 35 17 30 -47 -10 -118 -20 -303 -21 -353 l0 -50 55 3 c30 2 56 5
58 7 2 1 10 83 18 182 7 98 19 228 25 288 5 61 11 121 12 135 2 23 -1 25 -49
28 -34 2 -56 -2 -65 -11z"/>
<path d="M5745 7525 c-71 -31 -102 -98 -111 -244 -10 -151 14 -240 91 -328 42
-49 120 -79 177 -68 54 10 127 70 150 123 19 41 20 59 15 171 -5 112 -9 130
-37 187 -37 75 -92 126 -167 154 -61 23 -76 24 -118 5z m130 -118 c45 -45 69
-129 70 -242 0 -101 -14 -146 -51 -166 -83 -44 -150 121 -133 328 8 113 51
143 114 80z"/>
<path d="M6409 7367 c-15 -12 -36 -30 -48 -40 l-22 -18 31 -39 c35 -44 47 -48
65 -24 10 14 17 3 43 -72 34 -94 62 -215 62 -265 0 -16 6 -29 13 -30 21 -2 92
3 95 6 7 7 -50 221 -90 341 -39 120 -43 126 -79 145 -21 10 -40 19 -41 19 -2
0 -15 -11 -29 -23z"/>
<path d="M3690 7354 c-19 -14 -56 -36 -82 -50 -27 -13 -48 -25 -48 -27 0 -1 6
-19 13 -39 l13 -37 37 25 c20 13 37 23 37 20 0 -2 -16 -79 -35 -170 -19 -92
-35 -175 -35 -185 0 -16 6 -18 48 -13 26 2 48 6 49 7 2 1 12 57 24 126 11 68
36 176 54 239 18 63 32 116 32 117 -1 0 -18 4 -37 7 -28 5 -42 0 -70 -20z"/>
<path d="M3561 6714 c-91 -47 -143 -236 -111 -406 25 -129 112 -217 196 -198
46 11 83 38 106 77 28 48 51 179 44 253 -7 78 -37 189 -60 224 -37 58 -115 80
-175 50z m99 -112 c19 -42 25 -88 25 -202 -1 -113 -15 -166 -49 -176 -31 -10
-64 34 -77 101 -23 127 26 328 76 309 7 -3 18 -17 25 -32z"/>
<path d="M5051 6723 c-30 -6 -89 -43 -118 -74 -47 -52 -92 -192 -93 -293 0
-74 20 -177 42 -213 35 -58 135 -113 206 -113 83 0 198 90 223 175 18 64 18
252 0 325 -25 99 -92 171 -178 191 -40 9 -43 9 -82 2z m76 -125 c27 -30 38
-53 52 -112 27 -112 4 -281 -45 -327 -31 -29 -69 -18 -101 29 -42 63 -50 266
-13 349 37 85 69 103 107 61z"/>
<path d="M6530 6723 c-74 -28 -123 -150 -135 -333 -10 -135 19 -232 77 -269
69 -43 181 -2 225 83 29 56 46 142 46 241 1 91 -2 105 -29 159 -42 83 -130
141 -184 119z m80 -125 c53 -88 23 -363 -43 -384 -13 -4 -27 1 -41 15 -19 20
-21 32 -21 139 0 121 11 174 45 230 25 40 35 40 60 0z"/>
<path d="M4234 6665 c-43 -30 -80 -60 -82 -65 -2 -5 7 -24 20 -42 13 -18 24
-34 24 -36 1 -2 20 6 42 17 l40 20 6 -31 c8 -39 16 -160 20 -309 2 -64 6 -122
10 -128 4 -6 34 -11 68 -11 l60 0 -7 238 c-5 130 -9 251 -10 267 -1 17 -3 48
-4 70 -1 38 -3 41 -41 53 -22 6 -46 12 -53 12 -7 0 -49 -25 -93 -55z"/>
<path d="M5901 6706 c-9 -11 -143 -105 -159 -112 -7 -3 45 -84 54 -84 5 0 25
11 44 25 18 14 34 24 35 22 6 -7 -17 -277 -31 -362 -9 -55 -17 -104 -17 -110
-2 -9 119 -8 134 1 6 3 12 46 24 159 3 22 9 83 15 135 6 52 14 144 18 204 7
105 7 108 -14 116 -50 19 -90 22 -103 6z"/>
<path d="M3640 5903 c-25 -19 -46 -41 -48 -47 -4 -19 53 -67 71 -60 10 3 17
10 17 15 0 5 5 9 10 9 11 0 75 -131 130 -265 18 -44 37 -86 43 -92 11 -15 97
-18 97 -3 0 15 -104 261 -155 365 -37 78 -48 92 -78 103 -18 6 -35 12 -38 11
-2 0 -24 -16 -49 -36z"/>
<path d="M6397 5881 c-27 -21 -69 -48 -93 -60 -24 -12 -46 -26 -49 -31 -3 -5
8 -18 25 -30 28 -20 31 -20 61 -5 17 9 32 15 34 13 5 -7 -44 -146 -79 -222
-20 -44 -34 -81 -31 -84 2 -3 28 4 57 14 47 17 55 25 83 79 41 77 129 335 118
345 -4 5 -24 11 -43 14 -30 4 -42 -1 -83 -33z"/>
<path d="M7088 5895 c-56 -14 -84 -36 -156 -122 -66 -79 -124 -169 -176 -272
-51 -100 -149 -247 -249 -371 -99 -122 -175 -198 -271 -272 -38 -29 -69 -57
-68 -62 0 -5 25 -17 55 -26 30 -9 80 -31 112 -48 l58 -32 32 28 c42 36 30 19
290 407 334 498 288 443 574 671 9 8 -33 56 -67 77 -49 31 -79 36 -134 22z"/>
<path d="M4262 5863 c-18 -9 -43 -30 -55 -47 -19 -27 -22 -44 -22 -131 0 -95
2 -104 38 -177 68 -140 176 -216 291 -205 42 4 55 10 88 45 37 40 38 43 38
116 0 111 -54 248 -131 331 -72 78 -172 105 -247 68z m165 -136 c50 -74 75
-152 77 -235 1 -79 -6 -92 -54 -92 -58 0 -112 75 -135 189 -16 73 -8 148 17
179 22 26 61 9 95 -41z"/>
<path d="M5806 5845 c-144 -51 -253 -260 -216 -414 42 -177 315 -108 416 105
36 77 44 192 17 244 -38 73 -123 99 -217 65z m93 -110 c17 -35 18 -114 3 -170
-32 -115 -126 -181 -177 -125 -39 43 6 214 77 292 44 48 75 49 97 3z"/>
<path d="M5051 5824 c-13 -9 -57 -31 -98 -48 -41 -18 -74 -36 -73 -41 1 -6 16
-25 32 -44 l30 -34 45 22 c25 12 48 20 50 17 3 -3 7 -97 10 -210 l6 -206 63 0
64 0 0 48 c0 26 2 147 4 269 l4 221 -31 5 c-18 3 -43 8 -57 12 -16 4 -34 0
-49 -11z"/>
<path d="M7438 5696 c-53 -19 -86 -42 -187 -131 -73 -64 -110 -107 -183 -215
-51 -74 -149 -216 -218 -315 -69 -99 -157 -225 -194 -280 -38 -55 -77 -111
-87 -124 -26 -33 -24 -86 6 -149 42 -91 33 -166 -36 -309 -41 -84 -90 -123
-212 -172 -139 -54 -444 -173 -542 -209 -145 -55 -157 -56 -566 -43 -206 6
-391 14 -411 17 -94 14 -7 73 137 94 39 5 194 17 345 25 151 9 293 21 315 26
58 16 652 228 702 251 119 56 167 191 103 291 -53 84 -145 134 -293 157 -96
16 -338 7 -447 -15 -116 -25 -292 -42 -436 -44 -231 -3 -420 29 -669 114 -352
120 -485 137 -797 104 -153 -16 -253 -49 -393 -128 -132 -76 -290 -240 -385
-400 -76 -128 -486 -1218 -524 -1392 -7 -34 0 -38 309 -132 215 -66 987 -233
1019 -221 16 6 21 17 100 247 30 87 65 177 77 202 37 74 101 139 168 169 114
51 164 55 767 61 613 7 719 15 816 66 35 18 222 135 318 199 47 31 153 96 235
145 336 198 390 238 501 367 133 155 121 136 434 693 240 427 417 755 436 809
31 85 11 159 -57 221 -44 39 -84 45 -151 21z"/>
<path d="M6014 5256 c-49 -30 -90 -61 -92 -70 -5 -22 16 -20 56 4 l33 20 -12
-22 c-7 -13 -50 -60 -96 -106 -45 -46 -83 -85 -83 -88 0 -2 22 7 50 21 87 44
250 229 250 285 0 17 -14 12 -106 -44z"/>
<path d="M4093 5270 c-18 -16 -33 -31 -33 -33 0 -2 14 -13 31 -26 25 -19 33
-20 46 -10 13 11 19 9 39 -16 14 -17 39 -58 56 -92 33 -68 41 -77 77 -88 23
-7 24 -6 17 26 -10 50 -71 146 -135 212 -30 31 -58 57 -61 57 -3 0 -20 -14
-37 -30z"/>
<path d="M5587 5161 c-48 -26 -87 -52 -87 -59 0 -22 30 -26 66 -9 l34 17 -29
-58 c-16 -31 -45 -79 -65 -107 -20 -27 -36 -53 -36 -57 0 -4 19 -1 43 5 36 11
49 22 89 82 26 39 62 98 80 133 18 35 36 66 40 68 16 10 7 22 -20 26 -20 3
-54 -10 -115 -41z"/>
<path d="M4548 5144 c-21 -13 -38 -27 -38 -30 0 -3 10 -14 22 -24 17 -13 28
-16 41 -8 10 5 20 8 22 6 14 -16 58 -119 69 -161 12 -48 16 -52 46 -55 l33 -3
-5 48 c-6 60 -69 207 -100 233 -30 25 -45 24 -90 -6z"/>
<path d="M5038 5108 c-32 -21 -58 -42 -58 -46 0 -5 6 -16 13 -26 12 -16 17
-17 37 -6 33 18 40 1 40 -108 l0 -93 43 3 42 3 3 117 c3 141 -5 179 -38 188
-19 5 -39 -3 -82 -32z"/>
</g>
</svg>
