<svg xmlns="http://www.w3.org/2000/svg" viewBox="0 0 160.86 160.38">
  <path d="m59.59 121.48 2.94-7.65s2.25-3.91 8.22-3.13 16.04-.1 16.04-.1 1.57.69 18.39-10.56c1.66-.78 5.42-7.65 7.33-11.27 1.72-3.25 4.93-8.21 7.33-13.34 1.34-2.86-.8-5.63-4.01-3.85 0 0-4.48 3.34-5.2 5.95l-7.57 10.63s-.72.46.59 2.67c0-.32.92 2.37-2.02 5.87-5.06 2.53-9.33 4.26-12.88 5.27 0 0-30.65-.67-.88-2.92 0 0 8.45-2.3 12.16-4.5 2.44-3.34.73-5.43-4.5-6.46 0 0-3.82-.49-10.47 1.08s-18.59-3.33-18.59-3.33c-1.23-1.4-13.67-1.27-18.88 7.04-4.04 8.66-7.14 16.6-8.68 23.33 6.31 2.33 13.19 4.09 20.67 5.26Z"/>
  <path d="M96.77 85.26q1.845.405 3.69 1.65c2.21-2.77 4.51-5.87 7.1-10.04.18-.05 3.59-5.67 4.89-5.58l2.1-1.64c-1.61-2.16-3.53-2.41-5.97.59-.38.37-2.83 3.92-3.33 5.62-.45 1.53-8.16 9.32-8.5 9.39ZM79.1 48.16c.31.2.75.3 1.34.3q.825 0 1.35-.33c.53-.33.78-.75.78-1.25 0-.33-.01-.66-.02-.99 0-.49-.29-.93-.83-1.3-.31-.21-.74-.31-1.29-.31-.54 0-.98.12-1.32.35-.52.35-.79.77-.8 1.27 0 .33-.01.66-.02.99 0 .5.26.92.82 1.28Zm.17-10.72c.27.19.66.28 1.17.28.48 0 .88-.1 1.18-.31.46-.31.67-.7.65-1.18-.01-.32-.02-.63-.04-.94-.02-.47-.27-.89-.73-1.25q-.39-.3-1.08-.3c-.45 0-.81.11-1.11.34-.44.33-.68.74-.7 1.22-.01.31-.03.63-.04.94-.02.47.21.87.69 1.21Zm-10.7 31.81c.31.23.74.39 1.29.47.52.07.94.02 1.25-.15.48-.26.7-.64.66-1.13-.02-.32-.05-.64-.07-.96q-.045-.72-.9-1.32c-.32-.22-.76-.36-1.32-.41q-.81-.075-1.29.18c-.48.26-.7.61-.66 1.08l.09.92c.05.46.36.89.93 1.31Zm-5.68-30.71c-.23-.02-.61.11-1.12.38-.5.27-.93.58-1.3.92-.55.51-.88.95-.99 1.3l-.21.71c-.1.35.06.53.48.55.23.02.61-.1 1.12-.33.49-.22.91-.48 1.27-.79.54-.47.87-.9.97-1.3.07-.26.14-.53.22-.79.11-.39-.04-.62-.45-.66Zm18.69 38.74c-.27-.19-.66-.28-1.17-.28-.49 0-.89.1-1.19.31-.46.31-.67.7-.65 1.18.01.32.02.63.04.94.02.47.27.89.74 1.25q.39.3 1.08.3c.44 0 .81-.11 1.1-.33.44-.33.68-.74.7-1.22.01-.31.03-.63.04-.94.02-.47-.2-.87-.68-1.21ZM57.84 58.72c.26.17.64.27 1.14.29.47.02.86-.05 1.17-.22q.69-.39.69-1.02v-.82c0-.41-.24-.76-.72-1.04-.27-.15-.66-.22-1.15-.19-.48.02-.86.13-1.16.32-.45.28-.67.59-.67.96v.73c0 .37.24.69.71.99Zm34.44-13.25c-.32-.23-.75-.4-1.29-.47q-.795-.105-1.26.15c-.48.26-.7.64-.66 1.13.02.32.05.64.07.96.03.48.33.92.91 1.32.32.22.76.36 1.32.41.53.05.96-.01 1.28-.18.48-.26.7-.61.66-1.08l-.09-.92c-.05-.45-.36-.89-.92-1.31Zm10.73 10.54c-.27-.17-.65-.27-1.14-.29-.48-.02-.87.05-1.18.22q-.69.39-.69 1.02v.82c0 .41.24.76.73 1.04.27.15.66.22 1.15.19.47-.02.85-.13 1.15-.32.45-.28.67-.59.67-.96V57c0-.36-.23-.69-.71-.99ZM72.84 77.79c-.07-.46-.37-.9-.91-1.34-.31-.24-.72-.42-1.23-.53-.49-.11-.88-.11-1.16.02q-.63.27-.48.93c.06.29.12.59.19.88.1.44.43.89.98 1.36.31.26.7.46 1.19.6.46.13.82.12 1.08 0 .39-.2.55-.54.48-1-.05-.3-.1-.61-.14-.92m8.95-22.25c-.33-.21-.79-.31-1.38-.31s-1.04.11-1.41.34c-.55.35-.82.77-.83 1.28v1.01c0 .5.29.94.87 1.31.32.21.78.31 1.38.31.57 0 1.03-.11 1.4-.34.55-.35.82-.77.82-1.28v-1.01c0-.5-.29-.94-.86-1.31Z"/>
  <path d="M101.39 74.92a54 54 0 0 1-4.98 2.73c-.39.19-.66.28-.81.29-.15 0-.2-.04-.17-.15s.14-.23.33-.38q.285-.21.87-.48c.55-.26 1.1-.52 1.66-.81.3-.97.58-1.94.83-2.92q-.75.405-1.5.78c-.24.12-.42.21-.54.25-.21.08-.38.11-.51.1-.13-.02-.19-.08-.16-.19.02-.1.1-.2.22-.3.13-.1.37-.23.74-.41 1.21-.58 2.41-1.2 3.6-1.85-.3 1.23-.65 2.46-1.03 3.67a71 71 0 0 0 1.66-.96c.39-.24.67-.39.82-.44.06-.02.09-.02.12-.02 3.14-4.65 4.99-10.34 4.99-16.48 0-15.74-12.13-28.51-27.1-28.51s-27.1 12.76-27.1 28.51c0 6.15 1.85 11.83 5 16.49.03 0 .07 0 .13.02.15.05.42.2.82.44.55.33 1.11.65 1.66.96q-.435-1.38-.81-2.79c-.47-.18-.93-.37-1.4-.57-.22-.1-.39-.18-.5-.24-.2-.11-.39-.24-.55-.38s-.26-.26-.28-.35c-.02-.08.02-.12.11-.1.1.01.31.09.65.23 1.11.47 2.23.89 3.37 1.24.31 1.29.66 2.57 1.06 3.84.55.28 1.11.55 1.66.81q.585.27.87.48c.19.14.3.27.33.38s-.02.16-.17.15c-.15 0-.41-.1-.81-.29-1.64-.79-3.31-1.7-4.98-2.73-.35-.22-.61-.4-.79-.56 4.94 6.97 12.84 11.49 21.74 11.49s16.8-4.52 21.74-11.49c-.19.15-.43.33-.77.54ZM56.24 51.21c.16-.1.42-.2.78-.29.51-.13 1.03-.25 1.55-.37.11-.96.24-1.92.4-2.87-.48.2-.95.41-1.42.62-.22.1-.39.17-.5.21q-.285.105-.48.09c-.13-.01-.19-.06-.17-.15.01-.08.08-.17.19-.26s.34-.22.68-.38a79 79 0 0 1 3.46-1.55c-.23 1.31-.42 2.63-.57 3.95.54-.11 1.09-.22 1.65-.32.4-.07.68-.09.84-.04.16.04.24.12.23.24-.01.11-.11.22-.28.32-.18.1-.47.18-.86.24-1.66.27-3.26.58-4.78.93-.36.08-.61.12-.76.09-.15-.02-.21-.08-.2-.17s.09-.19.25-.29Zm-.59 5.81c0-.41.28-.8.84-1.23.56-.42 1.38-.7 2.49-.78.63-.05 1.17-.02 1.62.08s.88.33 1.29.68.62.75.62 1.17v.86c0 .51-.31.99-.92 1.42s-1.48.59-2.59.51c-.64-.05-1.16-.15-1.59-.3s-.83-.4-1.2-.73-.56-.65-.56-.98v-.69Zm7.54 11.95c-.16.03-.44-.01-.83-.12-1.66-.46-3.27-.99-4.82-1.58-.37-.14-.64-.28-.8-.4-.17-.12-.26-.23-.27-.32-.02-.09.05-.13.19-.13.15 0 .4.07.77.2.52.19 1.04.36 1.57.54-.16-.95-.29-1.91-.41-2.87-.46-.05-.91-.11-1.36-.18a4 4 0 0 1-.48-.09c-.19-.05-.36-.13-.5-.23-.15-.1-.22-.2-.23-.29 0-.08.03-.14.13-.16s.3 0 .63.03c1.06.14 2.17.25 3.31.32.13 1.32.3 2.64.52 3.96q.81.24 1.65.45c.4.1.69.21.87.32s.28.23.3.34q.03.165-.21.21Zm1.79-30.48c-.07.27-.15.54-.22.82-.13.49-.55 1.07-1.27 1.75s-1.65 1.23-2.79 1.72c-.65.28-1.19.48-1.6.58-.42.1-.78.1-1.1.02s-.43-.28-.34-.6c.06-.22.13-.45.19-.67.12-.39.53-.96 1.27-1.71.73-.75 1.69-1.49 2.85-2.13.66-.36 1.2-.59 1.62-.7.42-.1.78-.08 1.08.08.31.16.41.46.3.85Zm39.16 28.37c-.17.12-.43.25-.8.4a56 56 0 0 1-4.82 1.58c-.4.11-.67.15-.83.12q-.24-.045-.21-.21c.02-.11.12-.23.3-.34s.47-.22.87-.32q.825-.21 1.65-.45c.16-1 .3-2 .42-3.01-.48.16-.98.31-1.47.46-.24.07-.42.12-.54.14-.21.04-.39.03-.54-.02s-.21-.13-.2-.25c.01-.1.08-.19.2-.27s.36-.17.73-.27c1.2-.34 2.37-.69 3.5-1.04-.13 1.26-.3 2.52-.5 3.77.53-.17 1.06-.35 1.57-.54.37-.13.62-.2.77-.2.14 0 .21.04.19.14-.02.09-.11.2-.27.32Zm1.06-9.15c0 .41-.28.81-.85 1.23s-1.39.7-2.49.78c-.64.05-1.18.02-1.63-.09-.45-.1-.87-.33-1.28-.68s-.61-.74-.61-1.16v-.86c0-.51.31-.99.91-1.42.61-.43 1.48-.59 2.58-.51.63.05 1.16.15 1.58.3.43.15.83.4 1.21.73s.56.65.57.99v.69Zm-.57-6.49c.16.1.24.19.25.29 0 .09-.06.15-.2.17-.15.02-.4-.01-.76-.09-1.52-.35-3.12-.66-4.78-.93-.4-.06-.69-.14-.86-.24-.18-.1-.27-.21-.28-.32s.07-.19.23-.24c.16-.04.45-.03.84.04.56.1 1.1.21 1.65.32-.11-1.01-.25-2.01-.41-3.01-.47-.08-.95-.16-1.43-.22-.23-.03-.41-.06-.52-.09-.21-.05-.4-.13-.56-.25-.17-.11-.26-.23-.27-.34-.02-.1.03-.17.13-.2q.15-.045.69.03c1.16.17 2.3.39 3.41.66.22 1.25.41 2.5.55 3.76.53.12 1.04.25 1.55.38.36.09.62.19.78.29Zm-9.01-14.14c.09 0 .31.05.65.17 1.13.41 2.27.9 3.42 1.46.4 1.21.76 2.43 1.08 3.65.54.26 1.09.53 1.62.81.38.2.66.38.84.53q.27.225.3.36c.02.09-.04.12-.19.09s-.41-.14-.79-.33c-1.6-.81-3.23-1.52-4.89-2.14-.39-.15-.68-.28-.87-.41-.18-.13-.29-.25-.32-.36s.04-.17.19-.18c.15 0 .42.06.82.22.55.22 1.1.44 1.65.68-.25-.98-.53-1.95-.82-2.92q-.705-.285-1.41-.54c-.23-.08-.4-.15-.51-.2-.21-.09-.4-.21-.57-.35s-.27-.26-.31-.37c-.03-.1 0-.15.1-.16Zm-.69 9.99c.04.3.07.6.1.89.06.53-.21.99-.83 1.4-.61.41-1.54.57-2.79.47-.72-.06-1.34-.18-1.85-.38-.51-.19-1-.51-1.48-.97-.47-.45-.72-.92-.75-1.39l-.06-.97c-.04-.57.26-1.1.88-1.56.61-.45 1.52-.6 2.73-.42.69.1 1.28.28 1.78.51q.75.345 1.47 1.05c.48.47.75.92.8 1.36Zm-8.69-12.99c.09-.04.3-.06.62-.04 1.06.07 2.12.2 3.19.4.34 1.46.64 2.93.91 4.43.55.13 1.1.28 1.65.43.39.11.68.23.87.35.18.12.29.24.31.36s-.04.18-.2.21c-.15.03-.43-.02-.83-.12a52 52 0 0 0-4.98-1.06c-.4-.06-.68-.14-.86-.25-.18-.1-.27-.22-.29-.35-.01-.13.06-.22.22-.27s.43-.05.82.01c.55.09 1.09.19 1.64.31q-.27-1.74-.6-3.45c-.45-.05-.9-.09-1.34-.12-.21-.01-.38-.03-.49-.05-.19-.04-.37-.11-.52-.22s-.24-.23-.25-.35c-.02-.11.02-.19.12-.23Zm-9.16 1.32c.04-.55.37-1.11.96-1.66.58-.55 1.37-.85 2.38-.85.58 0 1.07.09 1.48.26s.81.47 1.22.91c.4.44.63.89.67 1.35.02.31.05.63.07.94.04.56-.22 1.07-.8 1.55s-1.46.71-2.61.7c-.66 0-1.22-.06-1.67-.2s-.87-.4-1.25-.79-.54-.8-.51-1.26c.02-.31.05-.63.07-.94Zm-.58 10.55c.02-.58.38-1.16 1.06-1.72s1.62-.86 2.85-.86c.7 0 1.3.09 1.79.26s.97.48 1.43.92c.46.45.71.91.72 1.39l.03.99c.02.59-.3 1.14-.98 1.66q-1.02.78-2.97.78c-.75 0-1.38-.08-1.89-.23s-.99-.44-1.44-.86-.66-.87-.64-1.35l.03-.99Zm-9.1-6.3c.18-.12.47-.24.87-.35.55-.15 1.1-.3 1.65-.43.2-1.14.43-2.27.67-3.39-.48.2-.96.41-1.45.63-.23.11-.41.18-.52.22-.2.07-.37.09-.5.07-.13-.03-.18-.09-.15-.21.03-.1.1-.2.23-.3.12-.1.37-.24.72-.4 1.17-.54 2.31-1.04 3.43-1.48-.3 1.48-.56 2.99-.8 4.51.55-.11 1.1-.21 1.64-.31.39-.07.66-.07.82-.01.16.05.23.15.22.28s-.11.24-.29.34-.46.18-.86.25q-2.49.39-4.98 1.05c-.4.11-.67.15-.83.12-.15-.03-.22-.1-.19-.21.02-.12.13-.24.31-.36Zm-1.44 9.71c.18-.1.48-.18.9-.23.59-.07 1.18-.14 1.78-.2.09-1.19.2-2.37.34-3.54-.52.14-1.05.29-1.57.44-.25.07-.44.12-.56.14-.22.04-.4.03-.55-.02s-.21-.14-.2-.26c.01-.11.08-.2.21-.29.12-.09.38-.19.75-.31 1.25-.38 2.5-.74 3.76-1.07-.17 1.56-.3 3.14-.41 4.73.6-.05 1.21-.1 1.82-.14.43-.03.74 0 .93.06.18.07.27.17.26.31 0 .13-.1.24-.29.34-.19.09-.51.15-.94.18-1.83.12-3.63.27-5.39.46-.42.05-.72.04-.89-.01-.17-.06-.25-.14-.24-.27.01-.12.11-.23.29-.33Zm-.6 10.2c0-.12.08-.22.26-.29q.27-.105.9-.09c.6.02 1.2.03 1.8.04-.02-1.2-.02-2.39 0-3.59-.54.08-1.07.16-1.6.23q-.375.06-.57.06c-.22 0-.42-.03-.58-.11q-.24-.12-.24-.3 0-.165.18-.27c.12-.07.37-.13.76-.19 1.27-.2 2.57-.4 3.88-.6-.04 1.6-.04 3.21-.02 4.81l1.86.03c.45 0 .76.05.96.14.19.09.29.2.29.33s-.09.24-.28.32-.51.11-.95.1c-1.86-.04-3.69-.1-5.47-.17-.43-.02-.73-.07-.91-.15s-.27-.19-.28-.31Zm.56 8.1c-.04-.3-.07-.6-.1-.89-.06-.53.21-.98.82-1.4s1.54-.57 2.79-.47c.72.06 1.33.18 1.84.37s1.01.51 1.49.96.73.92.76 1.4l.06.97c.04.58-.26 1.1-.88 1.56-.62.45-1.52.6-2.73.42-.7-.11-1.29-.28-1.79-.51s-.98-.58-1.46-1.05-.74-.92-.79-1.35ZM73.9 80.4c-.49.38-1.25.43-2.32.12a7 7 0 0 1-1.63-.7c-.47-.28-.95-.68-1.43-1.2-.49-.51-.79-.97-.89-1.39-.07-.29-.14-.57-.2-.86-.12-.51.08-.9.6-1.2.52-.31 1.37-.33 2.52-.08.66.14 1.23.32 1.71.55q.72.345 1.41 1.05c.46.47.71.93.76 1.39l.12.93c.07.55-.15 1.03-.64 1.4Zm9.87-1.08c-.04.56-.37 1.12-.96 1.66-.59.55-1.37.85-2.38.85-.58 0-1.08-.09-1.49-.26s-.81-.47-1.21-.91-.62-.89-.66-1.34c-.02-.31-.05-.63-.07-.94-.04-.56.22-1.07.8-1.55s1.46-.71 2.6-.71c.66 0 1.21.06 1.66.2s.87.4 1.25.79.55.8.52 1.27c-.02.31-.05.63-.07.94Zm.23-8.31c-.18.09-.49.15-.91.16q-2.655.105-5.31 0c-.42-.02-.73-.07-.91-.16s-.28-.21-.28-.34.08-.23.26-.31c.18-.07.48-.1.91-.09.6.02 1.2.03 1.79.04l-.03-3.78c-.55.07-1.09.13-1.64.19-.26.03-.46.04-.59.04-.23 0-.43-.06-.61-.15-.17-.1-.26-.21-.26-.34 0-.12.06-.21.18-.28s.39-.12.79-.16c1.32-.14 2.64-.3 3.97-.48 0 1.67-.02 3.33-.04 4.97.6 0 1.2-.02 1.79-.04.43-.01.73.01.91.09.18.07.26.18.26.31s-.1.24-.28.33m.56-13.15c0 .6-.36 1.17-1.07 1.72s-1.73.83-3.05.83c-.76 0-1.41-.08-1.93-.25-.53-.17-1.03-.47-1.5-.91s-.71-.9-.71-1.39v-1c0-.59.36-1.16 1.07-1.72.71-.55 1.72-.83 3.05-.83.76 0 1.4.08 1.92.25.53.16 1.03.47 1.51.91s.72.9.72 1.4v1Zm7.93 21.38c-.18.13-.46.27-.84.4-1.58.56-3.12 1-4.63 1.33-.36.08-.61.09-.75.04s-.2-.13-.19-.26c.02-.12.11-.24.27-.34.17-.11.43-.19.8-.27.51-.11 1.03-.23 1.55-.36q.33-1.71.6-3.45c-.49.17-.99.32-1.48.47-.24.07-.41.12-.53.14-.2.03-.38.02-.52-.04s-.2-.16-.19-.28c.01-.11.08-.21.2-.29s.36-.17.72-.28c1.19-.34 2.4-.73 3.61-1.15-.25 1.5-.54 2.99-.86 4.46.53-.16 1.06-.32 1.59-.51.38-.13.64-.19.79-.18.14.01.2.08.17.19s-.14.24-.32.37Zm2.44-11.58c-.06.53-.45 1.09-1.16 1.7s-1.66 1.03-2.87 1.21c-.7.11-1.28.11-1.75.01-.47-.09-.9-.33-1.31-.7-.41-.38-.6-.81-.57-1.28l.06-.97c.03-.58.4-1.15 1.1-1.73.7-.57 1.69-.9 2.95-1 .72-.06 1.31-.04 1.79.06q.72.15 1.32.66c.4.34.58.72.53 1.15-.03.3-.07.6-.1.89Zm-.6-7.64c-1.78.07-3.61.13-5.47.17-.44 0-.76-.03-.95-.1-.19-.08-.28-.19-.28-.32s.1-.24.29-.33.51-.13.96-.14c.62 0 1.24-.02 1.86-.03q.03-1.83 0-3.66l-1.64.18c-.26.03-.46.05-.6.04-.24 0-.44-.05-.61-.14s-.26-.21-.26-.34c0-.12.06-.21.19-.28s.39-.12.79-.17c1.33-.14 2.64-.27 3.92-.38.04 1.57.05 3.14.02 4.71.61-.01 1.21-.03 1.8-.04q.645-.015.9.09c.18.07.27.17.26.29 0 .12-.1.22-.28.31-.18.08-.48.14-.91.15Z"/>
  <path d="M92.6 65.92c-.29-.16-.71-.21-1.27-.16-.54.05-.99.2-1.35.44-.54.37-.83.8-.86 1.28-.02.32-.05.64-.07.96-.04.48.2.87.7 1.15.28.16.69.2 1.24.12.52-.07.96-.24 1.31-.5.54-.39.83-.82.88-1.28l.09-.92c.04-.45-.18-.82-.69-1.1Z"/>
</svg>
